<?xml version="1.0" standalone="no"?><!DOCTYPE svg PUBLIC "-//W3C//DTD SVG 1.1//EN" "http://www.w3.org/Graphics/SVG/1.1/DTD/svg11.dtd"><svg t="1685580551871" class="icon" viewBox="0 0 1024 1024" version="1.1" xmlns="http://www.w3.org/2000/svg" p-id="2313" xmlns:xlink="http://www.w3.org/1999/xlink" width="200" height="200"><path d="M614.96814 402.954445c-6.828522-6.828522-14.096043-13.046131-21.624507-18.736736l-69.951165 69.865207c8.142447 4.814656 15.845896 10.593266 22.850427 17.597797l3.501754 3.502777c44.737924 44.7369 44.737924 117.576859 0 162.316829L358.888833 828.444139c-44.737924 44.7369-117.578906 44.7369-162.316829 0l-3.502777-3.502777c-44.737924-44.737924-44.737924-117.578906 0-162.316829l86.410022-86.411045c-14.969946-37.032428-22.149463-76.517721-21.448498-115.913986L124.343983 593.986269c-82.383312 82.383312-82.383312 217.297025 0 299.679313l3.502777 3.502777c82.470293 82.383312 217.297025 82.383312 299.679313 0l190.944843-190.944843c82.383312-82.383312 82.383312-217.296001 0-299.679313L614.96814 402.954445 614.96814 402.954445zM897.226688 127.874389l-3.502777-3.502777c-82.383312-82.383312-217.297025-82.383312-299.679313 0L403.012773 315.316455c-82.383312 82.383312-82.383312 217.297025 0 299.680337l3.501754 3.501754c6.828522 6.828522 14.096043 13.047154 21.62553 18.822694l69.863161-69.863161c-8.142447-4.816702-15.845896-10.593266-22.850427-17.597797l-3.502777-3.589758c-44.7369-44.737924-44.7369-117.578906 0-162.316829L662.594857 193.008852c44.737924-44.737924 117.578906-44.737924 162.316829 0l3.501754 3.501754c44.737924 44.737924 44.737924 117.578906 0 162.316829l-86.410022 86.411045c14.969946 37.033451 22.150486 76.517721 21.448498 115.913986l133.775796-133.599787c82.383312-82.47234 82.383312-217.297025 0-299.679313l0 0L897.227712 127.874389 897.226688 127.874389z" p-id="2314"></path></svg>