<?xml version="1.0" standalone="no"?><!DOCTYPE svg PUBLIC "-//W3C//DTD SVG 1.1//EN" "http://www.w3.org/Graphics/SVG/1.1/DTD/svg11.dtd"><svg t="1667006686011" class="icon" viewBox="0 0 1024 1024" version="1.1" xmlns="http://www.w3.org/2000/svg" p-id="2069" xmlns:xlink="http://www.w3.org/1999/xlink" width="200" height="200"><path d="M452.928 63.872a117.76 117.76 0 0 1 118.144 0l297.856 172.736c36.544 21.12 59.072 60.352 59.072 102.72v345.344c0 42.368-22.528 81.536-59.072 102.72l-297.856 172.736a117.76 117.76 0 0 1-118.144 0l-297.856-172.736a118.72 118.72 0 0 1-59.072-102.72V339.328c0-42.368 22.528-81.536 59.072-102.72z m67.52 88.064a16.832 16.832 0 0 0-16.896 0L205.696 324.608a16.96 16.96 0 0 0-8.448 14.72v345.344c0 6.08 3.2 11.648 8.448 14.72l297.856 172.672a16.832 16.832 0 0 0 16.896 0l297.856-172.672a16.96 16.96 0 0 0 8.448-14.72V339.328a16.96 16.96 0 0 0-8.448-14.72zM520 368a136 136 0 1 1 0 272 136 136 0 0 1 0-272z m0 98.88a37.12 37.12 0 1 0 0 74.24 37.12 37.12 0 0 0 0-74.24z" p-id="2070"></path></svg>